# xmcd
#
# Track frame offsets:
#	150
#	17451
#	32442
#	53551
#	73980
#	90040
#	107167
#	123204
#	138843
#	153051
#	169725
#	185827
#	200885
#	216399
#
# Disc length: 3093 seconds
#
# Revision: 1
# Processed by: cddbd v1.5.2PL0 Copyright (c) Steve Scherf et al.
# Submitted via: audiograbber 1.83.01
#
DISCID=b80c130e
DTITLE=Siggi Schwarz - Soul Classics
DYEAR=2007
DGENRE=Soul
TTITLE0=Sweet Soul Music
TTITLE1=Hold on I´m coming
TTITLE2=I heard it through the Grapevine
TTITLE3=Mustang Sally
TTITLE4=That ´s how strong my Love is
TTITLE5=I thank you
TTITLE6=Knock on Wood
TTITLE7=Land of 1000 Dances
TTITLE8=Love Man
TTITLE9=Midnight Hour
TTITLE10=Soul Man
TTITLE11=Fa Fa Fa
TTITLE12=Roadrunner
TTITLE13=How sweet it is to be loved by you
EXTD=
EXTT0=
EXTT1=
EXTT2=
EXTT3=
EXTT4=
EXTT5=
EXTT6=
EXTT7=
EXTT8=
EXTT9=
EXTT10=
EXTT11=
EXTT12=
EXTT13=
PLAYORDER=
